<svg width="512" height="512" viewBox="0 0 512 512" fill="none" xmlns="http://www.w3.org/2000/svg">
<rect width="512" height="512" fill="#1A1A1F"/>
<path d="M159.146 158.213C166.721 141.527 186.389 134.141 203.075 141.716C219.761 149.291 227.147 168.958 219.572 185.644L137.142 367.222C129.567 383.909 109.899 391.295 93.2129 383.72C76.5268 376.145 69.1407 356.477 76.7157 339.791L159.146 158.213Z" fill="#EEEEEE"/>
<path d="M278.146 158.213C285.721 141.527 305.389 134.141 322.075 141.716C338.761 149.291 346.147 168.958 338.572 185.644L256.141 367.222C248.566 383.909 228.899 391.295 212.213 383.72C195.526 376.145 188.14 356.477 195.715 339.791L278.146 158.213Z" fill="#EEEEEE"/>
<path d="M397.146 158.213C404.721 141.527 424.389 134.141 441.075 141.716C457.761 149.291 465.147 168.958 457.572 185.644L375.141 367.222C367.566 383.909 347.899 391.295 331.213 383.72C314.526 376.145 307.14 356.477 314.715 339.791L397.146 158.213Z" fill="#EEEEEE"/>
</svg>
